<svg width="128" height="95" viewBox="0 0 128 95" fill="none" xmlns="http://www.w3.org/2000/svg">
<rect width="128" height="95" fill="white"/>
<path d="M19.4687 36.5938C19.5416 37.8958 19.8489 38.9531 20.3905 39.7656C21.4218 41.2865 23.2395 42.0469 25.8437 42.0469C27.0103 42.0469 28.0728 41.8802 29.0312 41.5469C30.8853 40.901 31.8124 39.7448 31.8124 38.0781C31.8124 36.8281 31.4218 35.9375 30.6405 35.4062C29.8489 34.8854 28.6093 34.4323 26.9218 34.0469L23.8124 33.3438C21.7812 32.8854 20.3437 32.3802 19.4999 31.8281C18.0416 30.8698 17.3124 29.4375 17.3124 27.5312C17.3124 25.4688 18.026 23.776 19.453 22.4531C20.8801 21.1302 22.901 20.4688 25.5155 20.4688C27.9218 20.4688 29.9635 21.0521 31.6405 22.2188C33.328 23.375 34.1718 25.2292 34.1718 27.7812H31.2499C31.0937 26.5521 30.7603 25.6094 30.2499 24.9531C29.302 23.7552 27.6926 23.1562 25.4218 23.1562C23.5885 23.1562 22.2707 23.5417 21.4687 24.3125C20.6666 25.0833 20.2655 25.9792 20.2655 27C20.2655 28.125 20.7343 28.9479 21.6718 29.4688C22.2864 29.8021 23.677 30.2188 25.8437 30.7188L29.0624 31.4531C30.6145 31.8073 31.8124 32.2917 32.6562 32.9062C34.1145 33.9792 34.8437 35.5365 34.8437 37.5781C34.8437 40.1198 33.9166 41.9375 32.0624 43.0312C30.2187 44.125 28.0728 44.6719 25.6249 44.6719C22.7707 44.6719 20.5364 43.9427 18.9218 42.4844C17.3072 41.0365 16.5155 39.0729 16.5468 36.5938H19.4687Z" fill="black"/>
<path d="M48.6874 20.4219C52.7395 20.4219 55.7395 21.724 57.6874 24.3281C59.2082 26.3594 59.9687 28.9583 59.9687 32.125C59.9687 35.5521 59.0989 38.401 57.3593 40.6719C55.3176 43.3385 52.4062 44.6719 48.6249 44.6719C45.0937 44.6719 42.3176 43.5052 40.2968 41.1719C38.4947 38.9219 37.5937 36.0781 37.5937 32.6406C37.5937 29.5365 38.3645 26.8802 39.9062 24.6719C41.8853 21.8385 44.8124 20.4219 48.6874 20.4219ZM48.9999 41.8906C51.7395 41.8906 53.7187 40.9115 54.9374 38.9531C56.1666 36.9844 56.7812 34.724 56.7812 32.1719C56.7812 29.474 56.0728 27.3021 54.6562 25.6562C53.2499 24.0104 51.3228 23.1875 48.8749 23.1875C46.4999 23.1875 44.5624 24.0052 43.0624 25.6406C41.5624 27.2656 40.8124 29.6667 40.8124 32.8438C40.8124 35.3854 41.453 37.5312 42.7343 39.2812C44.026 41.0208 46.1145 41.8906 48.9999 41.8906Z" fill="black"/>
<path d="M63.6093 21.0469H68.0624L74.6562 40.4531L81.203 21.0469H85.6093V44H82.6562V30.4531C82.6562 29.9844 82.6666 29.2083 82.6874 28.125C82.7083 27.0417 82.7187 25.8802 82.7187 24.6406L76.1718 44H73.0937L66.4999 24.6406V25.3438C66.4999 25.9062 66.5103 26.7656 66.5312 27.9219C66.5624 29.0677 66.578 29.9115 66.578 30.4531V44H63.6093V21.0469Z" fill="black"/>
<path d="M96.7813 30.4063L100.266 40.5469L103.969 30.4063H96.7813ZM101.891 43.9531L98.375 43.9531L90.0469 21L93.4531 21L95.7813 27.875L104.859 27.875L107.344 21L110.531 21L101.891 43.9531Z" fill="black"/>
<path d="M18.1406 53.0469H21.2812V76H18.1406V53.0469Z" fill="black"/>
<path d="M26.3438 53.0469H29.375V64.2344L40.5625 53.0469H44.8594L35.3125 62.2969L45.125 76H41.0781L33.0469 64.4844L29.375 68V76H26.3438V53.0469Z" fill="black"/>
<path d="M47.9844 53.0469H64.7188V55.8594H51.0156V62.8281H63.6875V65.4844H51.0156V73.2656H64.9531V76H47.9844V53.0469Z" fill="black"/>
<path d="M77.8438 73.3438C78.8958 73.3438 79.7604 73.2344 80.4375 73.0156C81.6458 72.6094 82.6354 71.8281 83.4062 70.6719C84.0208 69.7448 84.4635 68.5573 84.7344 67.1094C84.8906 66.2448 84.9688 65.4427 84.9688 64.7031C84.9688 61.8594 84.401 59.651 83.2656 58.0781C82.1406 56.5052 80.3229 55.7188 77.8125 55.7188H72.2969V73.3438H77.8438ZM69.1719 53.0469H78.4688C81.625 53.0469 84.0729 54.1667 85.8125 56.4062C87.3646 58.4271 88.1406 61.0156 88.1406 64.1719C88.1406 66.6094 87.6823 68.8125 86.7656 70.7812C85.151 74.2604 82.375 76 78.4375 76H69.1719V53.0469Z" fill="black"/>
<path d="M103.938 66.5938L100.453 56.4531L96.75 66.5938H103.938ZM98.8281 53.0469H102.344L110.672 76H107.266L104.938 69.125H95.8594L93.375 76H90.1875L98.8281 53.0469Z" fill="black"/>
<rect x="2" y="2" width="124" height="91" stroke="black" stroke-width="4"/>
</svg>
